# Blender 5.0.1
# www.blender.org
mtllib trees.mtl
o Cube
v -0.000503 0.106444 0.251892
v -0.015537 0.106444 0.236858
v -0.008020 0.106444 0.249877
v -0.013523 0.106444 0.244375
v -0.003463 0.244956 0.224784
v 0.011571 0.244956 0.239817
v -0.013955 0.246990 0.250309
v -0.001448 0.244956 0.232300
v 0.004054 0.244956 0.237803
v -0.015537 0.106444 0.198103
v -0.000503 0.106444 0.183070
v -0.013523 0.106444 0.190586
v -0.008020 0.106444 0.185084
v 0.011571 0.244956 0.195144
v -0.003463 0.244956 0.210178
v -0.013955 0.246990 0.184652
v 0.004054 0.244956 0.197158
v -0.001448 0.244956 0.202661
v 0.053285 0.106444 0.236858
v 0.038251 0.106444 0.251892
v 0.051271 0.106444 0.244375
v 0.045768 0.106444 0.249877
v 0.026177 0.244956 0.239817
v 0.041211 0.244956 0.224784
v 0.051703 0.246990 0.250309
v 0.033694 0.244956 0.237803
v 0.039197 0.244956 0.232300
v 0.038251 0.106444 0.183070
v 0.053285 0.106444 0.198103
v 0.045768 0.106444 0.185084
v 0.051271 0.106444 0.190586
v 0.041211 0.244956 0.210178
v 0.026177 0.244956 0.195144
v 0.051703 0.246990 0.184652
v 0.039197 0.244956 0.202661
v 0.033694 0.244956 0.197158
v -0.080015 0.259800 0.316369
v -0.095189 0.282136 0.331144
v -0.094719 0.282132 0.103419
v -0.080015 0.259800 0.118592
v 0.132745 0.282096 0.104031
v 0.117763 0.259800 0.118592
v 0.132406 0.282116 0.331488
v 0.117763 0.259800 0.316369
v -0.021399 0.669562 0.249087
v 0.003170 0.680977 0.229330
v 0.006978 0.677557 0.201149
v -0.013098 0.660665 0.175566
v 0.034578 0.671353 0.205632
v 0.059831 0.644524 0.185114
v 0.030770 0.674773 0.233812
v 0.051059 0.653456 0.259583
vn -0.1165 -0.9927 0.0312
vn -0.0664 -0.9956 0.0664
vn -0.0312 -0.9927 0.1165
vn -0.0312 -0.9927 -0.1165
vn -0.0664 -0.9956 -0.0664
vn -0.1165 -0.9927 -0.0312
vn 0.0312 -0.9927 0.1165
vn 0.0664 -0.9956 0.0664
vn 0.1165 -0.9927 0.0312
vn 0.1165 -0.9927 -0.0312
vn 0.0664 -0.9956 -0.0664
vn 0.0312 -0.9927 -0.1165
vn -0.8312 -0.5560 -0.0009
vn 0.0011 -0.5545 -0.8322
vn 0.8330 -0.5532 0.0007
vn -0.0007 -0.5563 0.8310
vn -0.1904 -0.9817 -0.0000
vn -0.0000 -0.9817 0.1904
vn -0.0000 -0.9817 -0.1904
vn 0.1904 -0.9817 -0.0000
vn -0.5130 0.8427 -0.1631
vn 0.2501 0.7164 -0.6513
vn 0.7261 0.6875 0.0063
vn 0.0915 0.8044 0.5870
vn -0.9795 0.1983 -0.0344
vn 0.2318 0.9689 -0.0863
vn -0.0247 0.1986 0.9798
vn 0.0440 0.2018 -0.9784
vn 0.9784 0.2054 0.0234
vn -0.2574 0.1062 0.9605
vn -0.7018 0.1224 0.7018
vn -0.9605 0.1062 0.2574
vn -0.2574 0.1062 -0.9605
vn -0.7018 0.1224 -0.7018
vn -0.9605 0.1062 -0.2574
vn 0.9605 0.1062 -0.2574
vn 0.7018 0.1224 -0.7018
vn 0.2574 0.1062 -0.9605
vn 0.2574 0.1062 0.9605
vn 0.7018 0.1224 0.7018
vn 0.9605 0.1062 0.2574
vn -0.0000 -1.0000 -0.0000
vn -0.9962 0.0868 -0.0000
vn -0.0000 0.0868 0.9962
vn -0.0000 0.0868 -0.9962
vn 0.9962 0.0868 -0.0000
vt 0.625000 0.084131
vt 0.625000 0.042065
vt 0.625000 0.000000
vt 0.625000 0.011271
vt 0.625000 0.334131
vt 0.625314 0.292057
vt 0.625000 0.250000
vt 0.626174 0.261264
vt 0.627347 0.250392
vt 0.625000 0.834131
vt 0.625314 0.792057
vt 0.625000 0.750000
vt 0.626174 0.761264
vt 0.627347 0.750392
vt 0.625000 0.584131
vt 0.625314 0.542057
vt 0.625000 0.500000
vt 0.626174 0.511264
vt 0.627347 0.500392
vt 0.625000 1.000000
vt 0.625000 0.165869
vt 0.625000 0.915869
vt 0.625000 0.415869
vt 0.625000 0.665869
vt 0.803249 0.678249
vt 0.803249 0.571751
vt 0.875000 0.500000
vt 0.872796 0.750000
vt 0.696751 0.571751
vt 0.696751 0.678249
vt 0.375000 0.945390
vt 0.376477 1.000000
vt 0.376477 0.000000
vt 0.625314 0.042057
vt 0.375315 0.027294
vt 0.375000 0.054610
vt 0.375000 0.304610
vt 0.375315 0.277294
vt 0.375315 0.222706
vt 0.625314 0.207943
vt 0.375000 0.195390
vt 0.375000 0.554610
vt 0.372771 0.527298
vt 0.366108 0.484243
vt 0.625314 0.457943
vt 0.356797 0.463593
vt 0.356797 0.786407
vt 0.366108 0.765757
vt 0.372771 0.722702
vt 0.625314 0.707943
vt 0.375000 0.695390
vt 0.125000 0.554610
vt 0.132316 0.527305
vt 0.152305 0.507316
vt 0.179610 0.500000
vt 0.179610 0.750000
vt 0.152305 0.742684
vt 0.132316 0.722695
vt 0.125000 0.695390
s 1
usemtl Material.001
f 5/1/1 8/2/1 7/3/1
f 8/2/2 9/4/2 7/3/2
f 9/4/3 6/3/3 7/3/3
f 14/5/4 17/6/4 16/7/4
f 17/6/5 18/8/5 16/7/5
f 18/8/6 15/9/6 16/7/6
f 23/10/7 26/11/7 25/12/7
f 26/11/8 27/13/8 25/12/8
f 27/13/9 24/14/9 25/12/9
f 32/15/10 35/16/10 34/17/10
f 35/16/11 36/18/11 34/17/11
f 36/18/12 33/19/12 34/17/12
f 38/3/13 39/7/13 40/7/13 37/3/13
f 39/7/14 41/17/14 42/17/14 40/7/14
f 41/17/15 43/12/15 44/12/15 42/17/15
f 43/12/16 38/20/16 37/20/16 44/12/16
f 16/7/17 15/21/17 5/1/17 7/3/17 37/3/17 40/7/17
f 7/20/18 6/22/18 23/10/18 25/12/18 44/12/18 37/20/18
f 34/17/19 33/23/19 14/5/19 16/7/19 40/7/19 42/17/19
f 25/12/20 24/24/20 32/15/20 34/17/20 42/17/20 44/12/20
f 46/25/21 47/26/21 48/27/21 45/28/21
f 47/26/22 49/29/22 50/17/22 48/27/22
f 49/29/23 51/30/23 52/12/23 50/17/23
f 51/30/24 46/25/24 45/28/24 52/12/24
f 39/7/25 38/3/25 45/3/25 48/7/25
f 49/29/26 47/26/26 46/25/26 51/30/26
f 38/20/27 43/12/27 52/12/27 45/20/27
f 41/17/28 39/7/28 48/7/28 50/17/28
f 43/12/29 41/17/29 50/17/29 52/12/29
usemtl Material.003
f 1/31/30 6/22/30 9/20/30 3/32/30
f 3/33/31 9/3/31 8/34/31 4/35/31
f 4/35/32 8/34/32 5/1/32 2/36/32
f 14/5/33 11/37/33 13/38/33 17/6/33
f 17/6/34 13/38/34 12/39/34 18/40/34
f 18/40/35 12/39/35 10/41/35 15/21/35
f 32/15/36 29/42/36 31/43/36 35/16/36
f 35/16/37 31/43/37 30/44/37 36/45/37
f 36/45/38 30/44/38 28/46/38 33/23/38
f 23/10/39 20/47/39 22/48/39 26/11/39
f 26/11/40 22/48/40 21/49/40 27/50/40
f 27/50/41 21/49/41 19/51/41 24/24/41
f 10/52/42 12/53/42 13/54/42 11/55/42 28/46/42 30/44/42 31/43/42 29/42/42 19/51/42 21/49/42 22/48/42 20/47/42 1/56/42 3/57/42 4/58/42 2/59/42
f 2/36/43 5/1/43 15/21/43 10/41/43
f 20/47/44 23/10/44 6/22/44 1/31/44
f 11/37/45 14/5/45 33/23/45 28/46/45
f 29/42/46 32/15/46 24/24/46 19/51/46
o Cube.005
v 0.006598 0.106444 -0.208786
v -0.002927 0.106444 -0.218310
v 0.001835 0.106444 -0.210062
v -0.001651 0.106444 -0.213548
v 0.003001 0.206424 -0.225398
v 0.013688 0.206424 -0.214711
v -0.004458 0.207870 -0.207253
v 0.004433 0.206424 -0.220055
v 0.008344 0.206424 -0.216143
v -0.002927 0.106444 -0.242863
v 0.006598 0.106444 -0.252388
v -0.001651 0.106444 -0.247625
v 0.001835 0.106444 -0.251112
v 0.013688 0.206424 -0.246468
v 0.003001 0.206424 -0.235781
v -0.004458 0.207870 -0.253927
v 0.008344 0.206424 -0.245037
v 0.004433 0.206424 -0.241125
v 0.040675 0.106444 -0.218310
v 0.031151 0.106444 -0.208786
v 0.039399 0.106444 -0.213548
v 0.035913 0.106444 -0.210062
v 0.024071 0.206424 -0.214711
v 0.034758 0.206424 -0.225398
v 0.042216 0.207870 -0.207253
v 0.029414 0.206424 -0.216143
v 0.033326 0.206424 -0.220055
v 0.031151 0.106444 -0.252388
v 0.040675 0.106444 -0.242863
v 0.035913 0.106444 -0.251112
v 0.039399 0.106444 -0.247625
v 0.034758 0.206424 -0.235781
v 0.024071 0.206424 -0.246468
v 0.042216 0.207870 -0.253927
v 0.033326 0.206424 -0.241125
v 0.029414 0.206424 -0.245037
v -0.051418 0.216976 -0.160292
v -0.062205 0.232854 -0.149789
v -0.061871 0.232851 -0.311673
v -0.051418 0.216976 -0.300887
v 0.099827 0.232825 -0.311238
v 0.089177 0.216976 -0.300887
v 0.099586 0.232839 -0.149545
v 0.089177 0.216976 -0.160292
v -0.010881 0.502937 -0.208122
v -0.003938 0.497778 -0.260386
v 0.049125 0.495825 -0.253599
v 0.041848 0.500947 -0.200661
v 0.000333 0.653360 -0.216581
v 0.011670 0.659476 -0.225144
v 0.013378 0.658224 -0.237994
v 0.004676 0.650143 -0.249253
v 0.026447 0.657727 -0.236321
v 0.037844 0.648925 -0.245010
v 0.024658 0.659003 -0.223308
v 0.033297 0.652120 -0.211918
v -0.033149 0.505590 -0.191323
v -0.046640 0.523587 -0.181146
v -0.031403 0.512244 -0.295882
v -0.021039 0.496591 -0.282487
v 0.085092 0.507950 -0.280984
v 0.071518 0.493185 -0.270648
v 0.069111 0.519213 -0.164765
v 0.058824 0.502120 -0.178309
vn -0.1165 -0.9927 0.0312
vn -0.0664 -0.9956 0.0664
vn -0.0312 -0.9927 0.1165
vn -0.0312 -0.9927 -0.1165
vn -0.0664 -0.9956 -0.0664
vn -0.1165 -0.9927 -0.0312
vn 0.0312 -0.9927 0.1165
vn 0.0664 -0.9956 0.0664
vn 0.1165 -0.9927 0.0312
vn 0.1165 -0.9927 -0.0312
vn 0.0664 -0.9956 -0.0664
vn 0.0312 -0.9927 -0.1165
vn -0.8312 -0.5560 -0.0009
vn 0.0012 -0.5545 -0.8322
vn 0.8330 -0.5532 0.0007
vn -0.0007 -0.5563 0.8310
vn -0.1904 -0.9817 -0.0000
vn -0.0000 -0.9817 0.1904
vn -0.0000 -0.9817 -0.1904
vn 0.1904 -0.9817 -0.0000
vn -0.9792 0.1995 -0.0381
vn -0.0333 0.1988 0.9795
vn 0.0348 0.2015 -0.9789
vn 0.9794 0.1996 0.0295
vn -0.5573 0.8159 -0.1542
vn 0.1095 0.7660 -0.6335
vn 0.6157 0.7879 0.0082
vn -0.0452 0.8398 0.5410
vn 0.0493 0.9947 -0.0905
vn -0.8125 -0.5808 -0.0505
vn 0.0773 -0.6183 -0.7821
vn 0.7812 -0.6018 0.1657
vn -0.1366 -0.5633 0.8149
vn -0.9418 0.2987 -0.1546
vn -0.0488 -0.9946 0.0912
vn -0.0499 -0.9946 0.0910
vn -0.1223 0.3024 0.9453
vn -0.0497 -0.9947 0.0900
vn -0.0487 -0.9947 0.0901
vn 0.1319 0.2864 -0.9490
vn 0.9508 0.2925 0.1024
vn -0.2581 0.0754 0.9632
vn -0.7043 0.0887 0.7043
vn -0.9632 0.0754 0.2581
vn -0.2581 0.0753 -0.9632
vn -0.7043 0.0886 -0.7043
vn -0.9632 0.0754 -0.2581
vn 0.9632 0.0753 -0.2581
vn 0.7043 0.0886 -0.7043
vn 0.2581 0.0753 -0.9632
vn 0.2581 0.0754 0.9632
vn 0.7043 0.0886 0.7043
vn 0.9632 0.0753 0.2581
vn -0.0000 -1.0000 -0.0000
vn -0.9982 0.0592 -0.0000
vn -0.0000 0.0592 0.9982
vn -0.0000 0.0591 -0.9983
vn 0.9983 0.0591 -0.0000
vt 0.625000 0.084131
vt 0.625000 0.042065
vt 0.625000 0.000000
vt 0.625000 0.011271
vt 0.625000 0.334131
vt 0.625314 0.292057
vt 0.625000 0.250000
vt 0.626174 0.261264
vt 0.627347 0.250392
vt 0.625000 0.834131
vt 0.625314 0.792057
vt 0.625000 0.750000
vt 0.626174 0.761264
vt 0.627347 0.750392
vt 0.625000 0.584131
vt 0.625314 0.542057
vt 0.625000 0.500000
vt 0.626174 0.511264
vt 0.627347 0.500392
vt 0.625000 1.000000
vt 0.625000 0.165869
vt 0.625000 0.915869
vt 0.625000 0.415869
vt 0.625000 0.665869
vt 0.625000 0.769378
vt 0.625000 0.480276
vt 0.625000 0.541178
vt 0.625000 0.708516
vt 0.375000 0.945390
vt 0.376477 1.000000
vt 0.376477 0.000000
vt 0.625314 0.042057
vt 0.375315 0.027294
vt 0.375000 0.054610
vt 0.375000 0.304610
vt 0.375315 0.277294
vt 0.375315 0.222706
vt 0.625314 0.207943
vt 0.375000 0.195390
vt 0.375000 0.554610
vt 0.372771 0.527298
vt 0.366108 0.484243
vt 0.625314 0.457943
vt 0.356797 0.463593
vt 0.356797 0.786407
vt 0.366108 0.765757
vt 0.372771 0.722702
vt 0.625314 0.707943
vt 0.375000 0.695390
vt 0.125000 0.554610
vt 0.132316 0.527305
vt 0.152305 0.507316
vt 0.179610 0.500000
vt 0.179610 0.750000
vt 0.152305 0.742684
vt 0.132316 0.722695
vt 0.125000 0.695390
s 1
usemtl Material.001
f 57/60/47 60/61/47 59/62/47
f 60/61/48 61/63/48 59/62/48
f 61/63/49 58/62/49 59/62/49
f 66/64/50 69/65/50 68/66/50
f 69/65/51 70/67/51 68/66/51
f 70/67/52 67/68/52 68/66/52
f 75/69/53 78/70/53 77/71/53
f 78/70/54 79/72/54 77/71/54
f 79/72/55 76/73/55 77/71/55
f 84/74/56 87/75/56 86/76/56
f 87/75/57 88/77/57 86/76/57
f 88/77/58 85/78/58 86/76/58
f 90/62/59 91/66/59 92/66/59 89/62/59
f 91/66/60 93/76/60 94/76/60 92/66/60
f 93/76/61 95/71/61 96/71/61 94/76/61
f 95/71/62 90/79/62 89/79/62 96/71/62
f 68/66/63 67/80/63 57/60/63 59/62/63 89/62/63 92/66/63
f 59/79/64 58/81/64 75/69/64 77/71/64 96/71/64 89/79/64
f 86/76/65 85/82/65 66/64/65 68/66/65 92/66/65 94/76/65
f 77/71/66 76/83/66 84/74/66 86/76/66 94/76/66 96/71/66
f 91/66/67 90/62/67 97/62/67 98/66/67
f 90/79/68 95/71/68 100/71/68 97/79/68
f 93/76/69 91/66/69 98/66/69 99/76/69
f 95/71/70 93/76/70 99/76/70 100/71/70
f 104/66/71 101/79/71 102/84/71 103/85/71
f 106/76/72 104/66/72 103/85/72 105/86/72
f 108/71/73 106/76/73 105/86/73 107/87/73
f 101/79/74 108/71/74 107/87/74 102/84/74
f 103/85/75 102/84/75 107/87/75 105/86/75
f 112/66/76 109/62/76 110/62/76 111/66/76
f 114/76/77 112/66/77 111/66/77 113/76/77
f 116/71/78 114/76/78 113/76/78 115/71/78
f 109/79/79 116/71/79 115/71/79 110/79/79
f 111/66/80 110/62/80 101/62/80 104/66/80
f 98/66/81 97/62/82 109/62/82 112/66/81
f 110/79/83 115/71/83 108/71/83 101/79/83
f 97/79/82 100/71/84 116/71/84 109/79/82
f 99/76/85 98/66/81 112/66/81 114/76/85
f 113/76/86 111/66/86 104/66/86 106/76/86
f 100/71/84 99/76/85 114/76/85 116/71/84
f 115/71/87 113/76/87 106/76/87 108/71/87
usemtl Material.003
f 53/88/88 58/81/88 61/79/88 55/89/88
f 55/90/89 61/62/89 60/91/89 56/92/89
f 56/92/90 60/91/90 57/60/90 54/93/90
f 66/64/91 63/94/91 65/95/91 69/65/91
f 69/65/92 65/95/92 64/96/92 70/97/92
f 70/97/93 64/96/93 62/98/93 67/80/93
f 84/74/94 81/99/94 83/100/94 87/75/94
f 87/75/95 83/100/95 82/101/95 88/102/95
f 88/102/96 82/101/96 80/103/96 85/82/96
f 75/69/97 72/104/97 74/105/97 78/70/97
f 78/70/98 74/105/98 73/106/98 79/107/98
f 79/107/99 73/106/99 71/108/99 76/83/99
f 62/109/100 64/110/100 65/111/100 63/112/100 80/103/100 82/101/100 83/100/100 81/99/100 71/108/100 73/106/100 74/105/100 72/104/100 53/113/100 55/114/100 56/115/100 54/116/100
f 54/93/101 57/60/101 67/80/101 62/98/101
f 72/104/102 75/69/102 58/81/102 53/88/102
f 63/94/103 66/64/103 85/82/103 80/103/103
f 81/99/104 84/74/104 76/83/104 71/108/104
