# Blender 5.0.1
# www.blender.org
mtllib tile_tes2.mtl
o Cube.002
v 0.500000 0.100000 -0.500000
v 0.500000 -0.000000 -0.500000
v 0.500000 0.100000 0.500000
v 0.500000 -0.000000 0.500000
v -0.500000 0.100000 -0.500000
v -0.500000 -0.000000 -0.500000
v -0.500000 0.100000 0.500000
v -0.500000 -0.000000 0.500000
v -0.500000 -0.000000 -0.466667
v -0.500000 -0.000000 0.466667
v 0.500000 0.100000 -0.466667
v 0.500000 0.100000 0.466667
v -0.500000 0.100000 0.466667
v -0.500000 0.100000 -0.466667
v 0.500000 -0.000000 0.466667
v 0.500000 -0.000000 -0.466667
v 0.466667 -0.000000 -0.500000
v -0.466667 -0.000000 -0.500000
v 0.466667 0.100000 0.500000
v -0.466667 0.100000 0.500000
v -0.466667 -0.000000 0.500000
v 0.466667 -0.000000 0.500000
v -0.466667 0.100000 -0.500000
v 0.466667 0.100000 -0.500000
v 0.466667 -0.000000 -0.466667
v -0.466667 -0.000000 -0.466667
v 0.466667 -0.000000 0.466667
v -0.466667 -0.000000 0.466667
v -0.466667 0.120000 -0.466667
v 0.466667 0.120000 -0.466667
v -0.466667 0.120000 0.466667
v 0.466667 0.120000 0.466667
vn -0.2762 0.9206 0.2762
vn -0.0000 -0.0000 1.0000
vn -1.0000 -0.0000 -0.0000
vn -0.0000 -1.0000 -0.0000
vn 1.0000 -0.0000 -0.0000
vn -0.0000 -0.0000 -1.0000
vn -0.2762 0.9206 -0.2762
vn -0.5145 0.8575 -0.0000
vn 0.5145 0.8575 -0.0000
vn -0.0000 1.0000 -0.0000
vn 0.2762 0.9206 -0.2762
vn -0.0000 0.8575 -0.5145
vn 0.2762 0.9206 0.2762
vn -0.0000 0.8575 0.5145
vt 0.791667 0.666667
vt 0.875000 0.666667
vt 0.875000 0.750000
vt 0.791667 0.750000
vt 0.375000 0.916667
vt 0.625000 0.916667
vt 0.625000 1.000000
vt 0.375000 1.000000
vt 0.375000 0.166667
vt 0.625000 0.166667
vt 0.625000 0.250000
vt 0.375000 0.250000
vt 0.291667 0.666667
vt 0.375000 0.666667
vt 0.375000 0.750000
vt 0.291667 0.750000
vt 0.625000 0.666667
vt 0.625000 0.750000
vt 0.375000 0.416667
vt 0.625000 0.416667
vt 0.625000 0.500000
vt 0.375000 0.500000
vt 0.625000 0.583333
vt 0.375000 0.583333
vt 0.291667 0.500000
vt 0.291667 0.583333
vt 0.375000 0.000000
vt 0.625000 0.000000
vt 0.625000 0.083333
vt 0.375000 0.083333
vt 0.791667 0.500000
vt 0.875000 0.500000
vt 0.875000 0.583333
vt 0.791667 0.583333
vt 0.708333 0.583333
vt 0.708333 0.666667
vt 0.708333 0.500000
vt 0.125000 0.583333
vt 0.208333 0.583333
vt 0.208333 0.666667
vt 0.125000 0.666667
vt 0.125000 0.500000
vt 0.208333 0.500000
vt 0.625000 0.333333
vt 0.375000 0.333333
vt 0.208333 0.750000
vt 0.125000 0.750000
vt 0.625000 0.833333
vt 0.375000 0.833333
vt 0.708333 0.750000
s 0
usemtl Material
f 31/1/1 13/2/1 7/3/1 20/4/1
f 21/5/2 20/6/2 7/7/2 8/8/2
f 9/9/3 14/10/3 5/11/3 6/12/3
f 27/13/4 15/14/4 4/15/4 22/16/4
f 15/14/5 12/17/5 3/18/5 4/15/5
f 17/19/6 24/20/6 1/21/6 2/22/6
f 2/22/5 1/21/5 11/23/5 16/24/5
f 16/24/5 11/23/5 12/17/5 15/14/5
f 17/25/4 2/22/4 16/24/4 25/26/4
f 25/26/4 16/24/4 15/14/4 27/13/4
f 8/27/3 7/28/3 13/29/3 10/30/3
f 10/30/3 13/29/3 14/10/3 9/9/3
f 23/31/7 5/32/7 14/33/7 29/34/7
f 29/34/8 14/33/8 13/2/8 31/1/8
f 11/23/9 30/35/9 32/36/9 12/17/9
f 30/35/10 29/34/10 31/1/10 32/36/10
f 1/21/11 24/37/11 30/35/11 11/23/11
f 24/37/12 23/31/12 29/34/12 30/35/12
f 9/38/4 26/39/4 28/40/4 10/41/4
f 26/39/4 25/26/4 27/13/4 28/40/4
f 6/42/4 18/43/4 26/39/4 9/38/4
f 18/43/4 17/25/4 25/26/4 26/39/4
f 6/12/6 5/11/6 23/44/6 18/45/6
f 18/45/6 23/44/6 24/20/6 17/19/6
f 10/41/4 28/40/4 21/46/4 8/47/4
f 28/40/4 27/13/4 22/16/4 21/46/4
f 4/15/2 3/18/2 19/48/2 22/49/2
f 22/49/2 19/48/2 20/6/2 21/5/2
f 12/17/13 32/36/13 19/50/13 3/18/13
f 32/36/14 31/1/14 20/4/14 19/50/14
